HIERARCHY
ROOT reference
{
  OFFSET 0 0 0
  CHANNELS 6 Xposition Yposition Zposition Zrotation Xrotation Yrotation
  JOINT Hips
  {
    OFFSET -10.2532 83.5854 -195.398
    CHANNELS 6 Xposition Yposition Zposition Zrotation Xrotation Yrotation
    JOINT Spine
    {
      OFFSET 0 7.81434 0
      CHANNELS 6 Xposition Yposition Zposition Zrotation Xrotation Yrotation
      JOINT Spine1
      {
        OFFSET 0 23.3781 0
        CHANNELS 6 Xposition Yposition Zposition Zrotation Xrotation Yrotation
        JOINT Neck
        {
          OFFSET 0 23.2821 2.11656
          CHANNELS 6 Xposition Yposition Zposition Zrotation Xrotation Yrotation
          JOINT Head
          {
            OFFSET 0 13.3416 -1.90594
            CHANNELS 6 Xposition Yposition Zposition Zrotation Xrotation Yrotation
            End Site
            {
              OFFSET 0 23.8242 0
            }
          }
        }
        JOINT LeftShoulder
        {
          OFFSET 3.82472 21.4916 -0.175476
          CHANNELS 6 Xposition Yposition Zposition Zrotation Xrotation Yrotation
          JOINT LeftArm
          {
            OFFSET 10.8239 0 0
            CHANNELS 6 Xposition Yposition Zposition Zrotation Xrotation Yrotation
            JOINT LeftForeArm
            {
              OFFSET 28.5356 0 0
              CHANNELS 6 Xposition Yposition Zposition Zrotation Xrotation Yrotation
              JOINT LeftHand
              {
                OFFSET 24.5315 0 0
                CHANNELS 6 Xposition Yposition Zposition Zrotation Xrotation Yrotation
                End Site
                {
                  OFFSET 14.2945 0 0
                }
              }
            }
          }
        }
        JOINT RightShoulder
        {
          OFFSET -3.77033 21.4916 -0.175476
          CHANNELS 6 Xposition Yposition Zposition Zrotation Xrotation Yrotation
          JOINT RightArm
          {
            OFFSET -10.8239 0 0
            CHANNELS 6 Xposition Yposition Zposition Zrotation Xrotation Yrotation
            JOINT RightForeArm
            {
              OFFSET -28.5356 0 0
              CHANNELS 6 Xposition Yposition Zposition Zrotation Xrotation Yrotation
              JOINT RightHand
              {
                OFFSET -24.5315 0 0
                CHANNELS 6 Xposition Yposition Zposition Zrotation Xrotation Yrotation
                End Site
                {
                  OFFSET -14.2945 0 0
                }
              }
            }
          }
        }
      }
    }
    JOINT LeftUpLeg
    {
      OFFSET 9.52968 0 0
      CHANNELS 6 Xposition Yposition Zposition Zrotation Xrotation Yrotation
      JOINT LeftLeg
      {
        OFFSET 0 -40.1884 0
        CHANNELS 6 Xposition Yposition Zposition Zrotation Xrotation Yrotation
        JOINT LeftFoot
        {
          OFFSET 0 -39.9954 0
          CHANNELS 6 Xposition Yposition Zposition Zrotation Xrotation Yrotation
          JOINT LeftToeBase
          {
            OFFSET 0 -6.19429 14.2945
            CHANNELS 6 Xposition Yposition Zposition Zrotation Xrotation Yrotation
            End Site
            {
              OFFSET 0 0 3.81187
            }
          }
        }
      }
    }
    JOINT RightUpLeg
    {
      OFFSET -9.52968 0 0
      CHANNELS 6 Xposition Yposition Zposition Zrotation Xrotation Yrotation
      JOINT RightLeg
      {
        OFFSET 0 -40.1884 0
        CHANNELS 6 Xposition Yposition Zposition Zrotation Xrotation Yrotation
        JOINT RightFoot
        {
          OFFSET 0 -39.9954 0
          CHANNELS 6 Xposition Yposition Zposition Zrotation Xrotation Yrotation
          JOINT RightToeBase
          {
            OFFSET 0 -6.19429 14.2945
            CHANNELS 6 Xposition Yposition Zposition Zrotation Xrotation Yrotation
            End Site
            {
              OFFSET 0 0 3.81187
            }
          }
        }
      }
    }
  }
}
MOTION
Frames:	8
Frame Time:	0.004
0 0 0 0 0 -0 -1.94197 66.1187 58.3255 3.35819 11.9624 -8.46469 0 7.81434 0 -8.3957 40.7315 3.4217 1.77636e-015 23.3781 1.42109e-014 -2.67142 15.9435 0.67449 -8.88178e-016 23.2821 2.11656 0.594755 2.11233 1.36283 0 13.3416 -1.90594 -3.7708 -39.4467 -0.460157 3.82472 21.4916 -0.175476 -11.7221 22.2596 3.03874 10.8239 1.42109e-014 1.42109e-014 -50.2714 48.341 -7.97148 28.5356 0 1.42109e-014 18.4281 -44.0543 -1.60554 24.5315 -7.10543e-015 0 32.8871 -40.5381 15.1371 -3.77033 21.4916 -0.175476 14.4815 27.189 11.5512 -10.8239 0 1.42109e-014 35.5281 35.3487 28.8216 -28.5356 -7.10543e-015 -7.10543e-015 -32.184 -29.9666 21.1223 -24.5315 7.10543e-015 0 -41.7567 -20.417 -11.4964 9.52968 0 -7.10543e-015 19.4814 -72.993 23.1175 1.77636e-015 -40.1884 0 -40.149 60.3133 47.207 -3.55271e-015 -39.9954 -1.42109e-014 25.1238 -18.0362 6.50834 0 -6.19429 14.2945 -7.95139e-016 -3.18055e-015 3.18055e-015 -9.52968 1.42109e-014 0 7.254 -43.5383 -0.665097 0 -40.1884 -1.42109e-014 -141.683 79.2664 134.361 -1.77636e-015 -39.9954 -1.77636e-015 1.1822 -33.3902 3.17963 0 -6.19429 14.2945 1.98785e-015 -9.54166e-015 -0 
0 0 0 0 0 -0 -1.90476 66.2098 58.7974 3.42171 12.0384 -8.45411 1.77636e-015 7.81434 0 -8.44922 40.5903 3.46444 -8.88178e-016 23.3781 -7.10543e-015 -2.76003 15.978 0.722407 0 23.2821 2.11656 0.589971 2.19293 1.34586 -8.88178e-016 13.3416 -1.90594 -3.7517 -39.4394 -0.467392 3.82472 21.4916 -0.175476 -11.6959 22.3409 2.86851 10.8239 0 -1.42109e-014 -49.9498 48.0545 -8.29173 28.5356 0 1.42109e-014 18.5495 -44.2064 -1.78467 24.5315 -7.10543e-015 2.84217e-014 32.5656 -40.7579 14.9266 -3.77033 21.4916 -0.175476 14.5308 27.3189 11.5488 -10.8239 0 -1.42109e-014 35.4331 35.3684 28.8418 -28.5356 -7.10543e-015 1.42109e-014 -32.0745 -29.8709 21.0444 -24.5315 -7.10543e-015 -7.10543e-015 -41.6756 -20.3473 -11.5447 9.52968 0 0 18.8703 -72.9444 22.5797 -1.77636e-015 -40.1884 0 -40.4749 60.7343 46.8308 0 -39.9954 -1.42109e-014 25.3472 -18.2731 7.25049 0 -6.19429 14.2945 -2.38542e-015 -3.18055e-015 -0 -9.52968 0 0 6.77879 -43.3103 -1.12604 1.77636e-015 -40.1884 0 -141.52 79.366 134.28 -8.88178e-016 -39.9954 -5.32907e-015 0.76004 -32.8427 2.95308 8.88178e-016 -6.19429 14.2945 -7.95139e-016 9.54166e-015 1.59028e-015 
0 0 0 0 0 -0 -1.85204 66.2923 59.2866 3.49339 12.1733 -8.30795 0 7.81434 -7.10543e-015 -8.2938 40.3224 3.32684 -1.77636e-015 23.3781 -1.42109e-014 -2.88381 16.1437 0.686197 -2.66454e-015 23.2821 2.11656 0.572041 2.16381 1.33073 -8.88178e-016 13.3416 -1.90594 -3.71888 -39.358 -0.462628 3.82472 21.4916 -0.175476 -11.6578 22.3514 2.75516 10.8239 1.42109e-014 -1.42109e-014 -49.6741 47.9903 -8.58517 28.5356 -1.42109e-014 0 18.7956 -44.5008 -1.9303 24.5315 -7.10543e-015 0 32.3736 -41.0888 14.8367 -3.77033 21.4916 -0.175476 14.5309 27.3356 11.5874 -10.8239 1.42109e-014 0 35.4633 35.3964 28.7993 -28.5356 0 7.10543e-015 -31.9346 -29.7843 20.9772 -24.5315 -7.10543e-015 7.10543e-015 -41.5638 -20.3178 -11.5262 9.52968 0 -7.10543e-015 17.8522 -73.001 21.5731 0 -40.1884 0 -40.8498 61.078 46.7732 0 -39.9954 1.42109e-014 25.5552 -18.5528 7.76947 3.55271e-015 -6.19429 14.2945 -4.41391e-032 -1.59028e-015 -1.59028e-015 -9.52968 0 0 6.14076 -43.1233 -1.86886 0 -40.1884 0 -140.907 79.4083 133.803 -1.77636e-015 -39.9954 3.55271e-015 0.421 -32.2788 2.80599 0 -6.19429 14.2945 -3.97569e-016 -3.18055e-015 7.95139e-016 
0 0 0 0 0 -0 -1.81236 66.3849 59.7608 3.52835 12.292 -8.18862 0 7.81434 0 -8.18701 40.1105 3.2337 0 23.3781 0 -2.9839 16.2769 0.667273 0 23.2821 2.11656 0.550593 2.09973 1.31595 0 13.3416 -1.90594 -3.63334 -39.2684 -0.431962 3.82472 21.4916 -0.175476 -11.6149 22.3218 2.69505 10.8239 -1.42109e-014 0 -49.4212 48.0732 -8.88017 28.5356 1.42109e-014 0 19.1524 -44.8428 -2.00592 24.5315 0 0 32.175 -41.4711 14.7726 -3.77033 21.4916 -0.175476 14.4905 27.3666 11.6427 -10.8239 0 2.84217e-014 35.5268 35.3912 28.768 -28.5356 0 0 -31.7752 -29.6847 20.9573 -24.5315 0 -7.10543e-015 -41.4926 -20.2546 -11.5228 9.52968 -1.42109e-014 0 17.0534 -73.0064 20.7867 1.77636e-015 -40.1884 0 -41.2053 61.361 46.7379 -3.55271e-015 -39.9954 0 25.8065 -18.744 8.25136 0 -6.19429 14.2945 7.95139e-016 1.59028e-015 3.18055e-015 -9.52968 0 0 5.62329 -42.9564 -2.54162 -1.77636e-015 -40.1884 -1.42109e-014 -139.955 79.4045 132.817 0 -39.9954 -1.77636e-015 0.397957 -31.5841 3.14836 0 -6.19429 14.2945 7.95139e-016 0 -0 
0 0 0 0 0 -0 -1.79117 66.4871 60.2252 3.52699 12.3629 -8.14117 0 7.81434 0 -8.20411 39.9926 3.26293 0 23.3781 -7.10543e-015 -3.00049 16.3666 0.704753 -1.77636e-015 23.2821 2.11656 0.417039 1.96748 1.28907 -8.88178e-016 13.3416 -1.90594 -3.47003 -39.1451 -0.361567 3.82472 21.4916 -0.175476 -11.6182 22.2485 2.64841 10.8239 0 0 -49.1402 48.2998 -9.1592 28.5356 2.13163e-014 0 19.5243 -45.1564 -2.09924 24.5315 -7.10543e-015 0 31.9886 -41.8259 14.677 -3.77033 21.4916 -0.175476 14.4202 27.4633 11.6166 -10.8239 -1.42109e-014 1.42109e-014 35.5361 35.3287 28.8448 -28.5356 -1.42109e-014 7.10543e-015 -31.5507 -29.5696 21.0217 -24.5315 -7.10543e-015 0 -41.6445 -20.1022 -11.6234 9.52968 -1.42109e-014 0 16.6102 -72.9379 20.3932 0 -40.1884 0 -41.5555 61.6961 46.6725 0 -39.9954 0 26.0454 -18.8805 8.73553 0 -6.19429 14.2945 -7.95139e-016 -1.59028e-015 -0 -9.52968 0 0 5.23932 -42.7694 -3.01407 -3.55271e-015 -40.1884 -1.42109e-014 -139.292 79.4281 132.165 -8.88178e-016 -39.9954 0 0.278142 -30.7836 3.43098 0 -6.19429 14.2945 -7.95139e-016 -1.59028e-014 1.59028e-015 
0 0 0 0 0 -0 -1.77907 66.5945 60.6763 3.49378 12.4688 -8.10546 -1.77636e-015 7.81434 7.10543e-015 -8.22376 39.8519 3.31532 8.88178e-016 23.3781 -7.10543e-015 -3.02482 16.3714 0.765082 0 23.2821 2.11656 0.410328 2.0304 1.29327 -1.77636e-015 13.3416 -1.90594 -3.46839 -39.1228 -0.354602 3.82472 21.4916 -0.175476 -11.5691 22.2498 2.55608 10.8239 -1.42109e-014 0 -48.907 48.4848 -9.4525 28.5356 1.42109e-014 0 19.9684 -45.5264 -2.10681 24.5315 0 1.42109e-014 31.81 -42.2541 14.5575 -3.77033 21.4916 -0.175476 14.4009 27.5525 11.589 -10.8239 0 0 35.4734 35.3943 28.9038 -28.5356 0 -7.10543e-015 -31.3212 -29.5227 20.9949 -24.5315 -7.10543e-015 7.10543e-015 -41.8184 -20.0454 -11.7266 9.52968 1.42109e-014 0 16.295 -72.8833 20.1089 -1.77636e-015 -40.1884 -1.42109e-014 -41.7986 62.0582 46.5184 0 -39.9954 0 26.1953 -19.0919 9.11694 0 -6.19429 14.2945 -4.37326e-015 -1.59028e-015 3.18055e-015 -9.52968 0 0 4.82661 -42.5452 -3.43416 1.77636e-015 -40.1884 -1.42109e-014 -138.818 79.5741 132.026 8.88178e-016 -39.9954 -3.55271e-015 -0.0617284 -30.2196 3.46162 0 -6.19429 14.2945 -1.19271e-015 -3.18055e-015 7.95139e-016 
0 0 0 0 0 -0 -1.77298 66.7032 61.1339 3.44591 12.5522 -8.07595 -1.77636e-015 7.81434 0 -8.22221 39.7121 3.34769 -8.88178e-016 23.3781 1.42109e-014 -3.11859 16.4204 0.824239 -1.77636e-015 23.2821 2.11656 0.457831 2.0115 1.30603 0 13.3416 -1.90594 -3.41827 -39.0185 -0.3208 3.82472 21.4916 -0.175476 -11.5019 22.2408 2.53852 10.8239 -1.42109e-014 0 -48.7335 48.1268 -9.71099 28.5356 -1.42109e-014 0 20.108 -45.6398 -2.47226 24.5315 0 0 31.6233 -42.4029 14.2752 -3.77033 21.4916 -0.175476 14.503 27.623 11.5485 -10.8239 0 0 35.2696 35.5312 28.9814 -28.5356 1.42109e-014 -7.10543e-015 -31.1759 -29.4527 20.8872 -24.5315 0 0 -41.705 -20.0038 -11.8242 9.52968 0 0 16.0759 -72.7904 19.9424 0 -40.1884 -1.42109e-014 -42.0983 62.3998 46.4819 -3.55271e-015 -39.9954 0 26.3254 -19.2893 9.49681 -3.55271e-015 -6.19429 14.2945 -1.19271e-015 -1.59028e-015 3.18055e-015 -9.52968 -1.42109e-014 0 4.47406 -42.3088 -3.86349 0 -40.1884 -1.42109e-014 -137.902 79.5915 131.243 1.77636e-015 -39.9954 -3.55271e-015 -0.124136 -29.5894 3.90201 0 -6.19429 14.2945 -7.95139e-016 -9.54166e-015 -0 
0 0 0 0 0 -0 -1.75867 66.8117 61.6005 3.40235 12.597 -7.99856 0 7.81434 0 -8.21197 39.6139 3.35742 0 23.3781 -7.10543e-015 -3.12392 16.5029 0.848618 0 23.2821 2.11656 0.376127 1.74674 1.26595 0 13.3416 -1.90594 -3.26886 -38.6448 -0.271256 3.82472 21.4916 -0.175476 -11.5261 22.2113 2.60191 10.8239 0 0 -48.4445 47.9923 -10.0484 28.5356 0 0 20.3292 -45.8135 -2.80529 24.5315 0 -1.42109e-014 31.3313 -42.6344 13.9587 -3.77033 21.4916 -0.175476 14.3573 27.5705 11.5815 -10.8239 0 0 35.4599 35.5318 28.9309 -28.5356 -1.42109e-014 -7.10543e-015 -30.9283 -29.288 20.9134 -24.5315 0 0 -41.6229 -19.9011 -11.7507 9.52968 1.42109e-014 -7.10543e-015 15.6532 -72.682 19.5551 1.77636e-015 -40.1884 -1.42109e-014 -42.4528 62.6895 46.6617 0 -39.9954 -1.42109e-014 26.4391 -19.4575 9.77448 0 -6.19429 14.2945 1.19271e-015 1.59028e-015 1.59028e-015 -9.52968 0 0 4.06783 -42.1793 -4.28687 -1.77636e-015 -40.1884 0 -137.819 79.595 131.246 8.88178e-016 -39.9954 3.55271e-015 -0.183536 -28.4637 4.36266 -8.88178e-016 -6.19429 14.2945 -1.19271e-015 3.18055e-015 -1.59028e-015 
